<mxfile host="app.diagrams.net" modified="2022-06-13T14:35:02.083Z" agent="5.0 (Windows NT 10.0; Win64; x64) AppleWebKit/537.36 (KHTML, like Gecko) Chrome/102.0.0.0 Safari/537.36" etag="wUPR1HubQ4-gvSikRr9p" version="17.4.6" type="github" pages="2">
  <diagram id="ifG-l_isRWRbhJV9foco" name="WJFF-OPM">
    <mxGraphModel dx="1678" dy="547" grid="0" gridSize="10" guides="1" tooltips="1" connect="1" arrows="1" fold="1" page="0" pageScale="1" pageWidth="850" pageHeight="1100" math="0" shadow="0">
      <root>
        <mxCell id="0" />
        <mxCell id="1" parent="0" />
        <mxCell id="NoAkZskZOoAclrzc-u74-13" style="edgeStyle=orthogonalEdgeStyle;rounded=0;orthogonalLoop=1;jettySize=auto;html=1;entryX=1;entryY=0.5;entryDx=0;entryDy=0;" edge="1" parent="1" source="NoAkZskZOoAclrzc-u74-1" target="NoAkZskZOoAclrzc-u74-3">
          <mxGeometry relative="1" as="geometry" />
        </mxCell>
        <mxCell id="NoAkZskZOoAclrzc-u74-1" value="Web page to schedule local Show" style="rounded=0;whiteSpace=wrap;html=1;fillColor=#D4E1F5;" vertex="1" parent="1">
          <mxGeometry x="300" y="194.5" width="120" height="50" as="geometry" />
        </mxCell>
        <mxCell id="NoAkZskZOoAclrzc-u74-10" style="edgeStyle=orthogonalEdgeStyle;rounded=0;orthogonalLoop=1;jettySize=auto;html=1;entryX=0.5;entryY=0;entryDx=0;entryDy=0;" edge="1" parent="1" source="NoAkZskZOoAclrzc-u74-3" target="NoAkZskZOoAclrzc-u74-9">
          <mxGeometry relative="1" as="geometry" />
        </mxCell>
        <mxCell id="NoAkZskZOoAclrzc-u74-31" style="edgeStyle=orthogonalEdgeStyle;rounded=0;orthogonalLoop=1;jettySize=auto;html=1;entryX=1;entryY=0.5;entryDx=0;entryDy=0;" edge="1" parent="1" source="NoAkZskZOoAclrzc-u74-3" target="NoAkZskZOoAclrzc-u74-28">
          <mxGeometry relative="1" as="geometry" />
        </mxCell>
        <mxCell id="NoAkZskZOoAclrzc-u74-3" value="WJFF Website backend" style="rounded=0;whiteSpace=wrap;html=1;fillColor=#D4E1F5;" vertex="1" parent="1">
          <mxGeometry x="90" y="190" width="120" height="60" as="geometry" />
        </mxCell>
        <mxCell id="NoAkZskZOoAclrzc-u74-7" style="edgeStyle=orthogonalEdgeStyle;rounded=0;orthogonalLoop=1;jettySize=auto;html=1;entryX=0.5;entryY=0;entryDx=0;entryDy=0;" edge="1" parent="1" source="NoAkZskZOoAclrzc-u74-5" target="NoAkZskZOoAclrzc-u74-3">
          <mxGeometry relative="1" as="geometry" />
        </mxCell>
        <mxCell id="NoAkZskZOoAclrzc-u74-5" value="Web page to enter Local Show details" style="rounded=0;whiteSpace=wrap;html=1;fillColor=#D4E1F5;" vertex="1" parent="1">
          <mxGeometry x="95" y="50" width="110" height="50" as="geometry" />
        </mxCell>
        <mxCell id="NoAkZskZOoAclrzc-u74-11" style="edgeStyle=orthogonalEdgeStyle;rounded=0;orthogonalLoop=1;jettySize=auto;html=1;" edge="1" parent="1" source="NoAkZskZOoAclrzc-u74-9">
          <mxGeometry relative="1" as="geometry">
            <mxPoint x="360" y="350" as="targetPoint" />
          </mxGeometry>
        </mxCell>
        <mxCell id="NoAkZskZOoAclrzc-u74-9" value="WJFF - Locally Produced Shows Page" style="rounded=0;whiteSpace=wrap;html=1;fillColor=#FFFF66;" vertex="1" parent="1">
          <mxGeometry x="90" y="320" width="120" height="60" as="geometry" />
        </mxCell>
        <mxCell id="NoAkZskZOoAclrzc-u74-20" style="edgeStyle=orthogonalEdgeStyle;rounded=0;orthogonalLoop=1;jettySize=auto;html=1;entryX=0.5;entryY=0;entryDx=0;entryDy=0;" edge="1" parent="1" source="NoAkZskZOoAclrzc-u74-12" target="NoAkZskZOoAclrzc-u74-19">
          <mxGeometry relative="1" as="geometry" />
        </mxCell>
        <mxCell id="NoAkZskZOoAclrzc-u74-12" value="Individual Show Page" style="rounded=0;whiteSpace=wrap;html=1;fillColor=#FFFF66;" vertex="1" parent="1">
          <mxGeometry x="300" y="319.5" width="120" height="60" as="geometry" />
        </mxCell>
        <mxCell id="NoAkZskZOoAclrzc-u74-15" style="edgeStyle=orthogonalEdgeStyle;rounded=0;orthogonalLoop=1;jettySize=auto;html=1;entryX=0;entryY=0.5;entryDx=0;entryDy=0;" edge="1" parent="1" source="NoAkZskZOoAclrzc-u74-14" target="NoAkZskZOoAclrzc-u74-9">
          <mxGeometry relative="1" as="geometry" />
        </mxCell>
        <mxCell id="NoAkZskZOoAclrzc-u74-16" value="views the shows page" style="edgeLabel;html=1;align=center;verticalAlign=middle;resizable=0;points=[];" vertex="1" connectable="0" parent="NoAkZskZOoAclrzc-u74-15">
          <mxGeometry x="-0.2092" y="-1" relative="1" as="geometry">
            <mxPoint x="51" y="39" as="offset" />
          </mxGeometry>
        </mxCell>
        <mxCell id="NoAkZskZOoAclrzc-u74-30" style="edgeStyle=orthogonalEdgeStyle;rounded=0;orthogonalLoop=1;jettySize=auto;html=1;entryX=0.5;entryY=1;entryDx=0;entryDy=0;" edge="1" parent="1" source="NoAkZskZOoAclrzc-u74-14" target="NoAkZskZOoAclrzc-u74-28">
          <mxGeometry relative="1" as="geometry">
            <Array as="points">
              <mxPoint x="-125" y="330" />
              <mxPoint x="-40" y="330" />
            </Array>
          </mxGeometry>
        </mxCell>
        <mxCell id="NoAkZskZOoAclrzc-u74-14" value="General Audience" style="shape=umlActor;verticalLabelPosition=bottom;verticalAlign=top;html=1;outlineConnect=0;fillColor=#97D077;" vertex="1" parent="1">
          <mxGeometry x="-170" y="290" width="30" height="60" as="geometry" />
        </mxCell>
        <mxCell id="NoAkZskZOoAclrzc-u74-19" value="Display all audios for that show sorted by latest audio" style="rounded=0;whiteSpace=wrap;html=1;fillColor=#FFFF66;" vertex="1" parent="1">
          <mxGeometry x="300" y="449.5" width="120" height="60" as="geometry" />
        </mxCell>
        <mxCell id="NoAkZskZOoAclrzc-u74-22" style="edgeStyle=orthogonalEdgeStyle;rounded=0;orthogonalLoop=1;jettySize=auto;html=1;" edge="1" parent="1" source="NoAkZskZOoAclrzc-u74-21" target="NoAkZskZOoAclrzc-u74-5">
          <mxGeometry relative="1" as="geometry" />
        </mxCell>
        <mxCell id="NoAkZskZOoAclrzc-u74-21" value="WJFF - Content Creator" style="shape=umlActor;verticalLabelPosition=bottom;verticalAlign=top;html=1;outlineConnect=0;fillColor=#3333FF;" vertex="1" parent="1">
          <mxGeometry x="-70" y="70" width="30" height="60" as="geometry" />
        </mxCell>
        <mxCell id="NoAkZskZOoAclrzc-u74-25" style="edgeStyle=orthogonalEdgeStyle;rounded=0;orthogonalLoop=1;jettySize=auto;html=1;entryX=1;entryY=0.5;entryDx=0;entryDy=0;" edge="1" parent="1" source="NoAkZskZOoAclrzc-u74-24" target="NoAkZskZOoAclrzc-u74-1">
          <mxGeometry relative="1" as="geometry" />
        </mxCell>
        <mxCell id="NoAkZskZOoAclrzc-u74-24" value="WJFF - Content Scheduler" style="shape=umlActor;verticalLabelPosition=bottom;verticalAlign=top;html=1;outlineConnect=0;fillColor=#3333FF;" vertex="1" parent="1">
          <mxGeometry x="610" y="219.5" width="30" height="60" as="geometry" />
        </mxCell>
        <mxCell id="NoAkZskZOoAclrzc-u74-28" value="WJFF show &lt;br&gt;calendar" style="rounded=0;whiteSpace=wrap;html=1;fillColor=#FFFF99;" vertex="1" parent="1">
          <mxGeometry x="-100" y="190" width="120" height="60" as="geometry" />
        </mxCell>
      </root>
    </mxGraphModel>
  </diagram>
  <diagram id="vretvbbjn9GuW6tMsoo9" name="Page-1">
    <mxGraphModel dx="1278" dy="547" grid="1" gridSize="10" guides="1" tooltips="1" connect="1" arrows="1" fold="1" page="1" pageScale="1" pageWidth="827" pageHeight="1169" math="0" shadow="0">
      <root>
        <mxCell id="0" />
        <mxCell id="1" parent="0" />
        <mxCell id="4FXnDJk-dTtMTGPGZGFG-5" value="Jira cloud" style="rounded=1;whiteSpace=wrap;html=1;" parent="1" vertex="1">
          <mxGeometry x="520" y="240" width="120" height="60" as="geometry" />
        </mxCell>
        <mxCell id="4FXnDJk-dTtMTGPGZGFG-6" value="" style="rounded=0;whiteSpace=wrap;html=1;" parent="1" vertex="1">
          <mxGeometry x="10" y="110" width="370" height="300" as="geometry" />
        </mxCell>
        <mxCell id="4FXnDJk-dTtMTGPGZGFG-7" value="Nessus Pro scan runs on schedule basis" style="rounded=0;whiteSpace=wrap;html=1;" parent="1" vertex="1">
          <mxGeometry x="127.5" y="130" width="135" height="40" as="geometry" />
        </mxCell>
        <mxCell id="4FXnDJk-dTtMTGPGZGFG-10" style="edgeStyle=orthogonalEdgeStyle;rounded=0;orthogonalLoop=1;jettySize=auto;html=1;" parent="1" source="4FXnDJk-dTtMTGPGZGFG-8" target="4FXnDJk-dTtMTGPGZGFG-5" edge="1">
          <mxGeometry relative="1" as="geometry" />
        </mxCell>
        <mxCell id="4FXnDJk-dTtMTGPGZGFG-16" style="edgeStyle=orthogonalEdgeStyle;rounded=0;orthogonalLoop=1;jettySize=auto;html=1;entryX=0.5;entryY=1;entryDx=0;entryDy=0;" parent="1" source="4FXnDJk-dTtMTGPGZGFG-8" target="4FXnDJk-dTtMTGPGZGFG-7" edge="1">
          <mxGeometry relative="1" as="geometry" />
        </mxCell>
        <mxCell id="4FXnDJk-dTtMTGPGZGFG-8" value="Python script to call Nessus Pro api to get the vulnerablity list and calls jira api to create tasks" style="ellipse;whiteSpace=wrap;html=1;" parent="1" vertex="1">
          <mxGeometry x="100.63" y="217.5" width="188.75" height="105" as="geometry" />
        </mxCell>
        <mxCell id="4FXnDJk-dTtMTGPGZGFG-9" value="Nessus Pro server - Onprem" style="text;html=1;align=center;verticalAlign=middle;resizable=0;points=[];autosize=1;strokeColor=none;fillColor=none;" parent="1" vertex="1">
          <mxGeometry x="10" y="90" width="170" height="20" as="geometry" />
        </mxCell>
        <mxCell id="4FXnDJk-dTtMTGPGZGFG-11" value="api call using&amp;nbsp; jira api key" style="text;html=1;align=center;verticalAlign=middle;resizable=0;points=[];autosize=1;strokeColor=none;fillColor=none;" parent="1" vertex="1">
          <mxGeometry x="350" y="270" width="150" height="20" as="geometry" />
        </mxCell>
        <mxCell id="4FXnDJk-dTtMTGPGZGFG-17" value="nessus api call" style="text;html=1;align=center;verticalAlign=middle;resizable=0;points=[];autosize=1;strokeColor=none;fillColor=none;" parent="1" vertex="1">
          <mxGeometry x="102.5" y="190" width="90" height="20" as="geometry" />
        </mxCell>
        <mxCell id="4FXnDJk-dTtMTGPGZGFG-18" value="The python script will be deployed and scheduled to run on the Nessus Pro server because the server is on prem and not reachable outside" style="text;html=1;strokeColor=none;fillColor=#FFE6CC;align=center;verticalAlign=middle;whiteSpace=wrap;rounded=0;" parent="1" vertex="1">
          <mxGeometry x="30.009999999999998" y="340" width="330" height="50" as="geometry" />
        </mxCell>
      </root>
    </mxGraphModel>
  </diagram>
</mxfile>
